<svg id="outline" xmlns="http://www.w3.org/2000/svg" viewBox="0 0 500.01 350.01"><defs><style>.cls-1{fill:#020202;}</style></defs><title>logo</title><path class="cls-1" d="M119.84,110c33.74,2.27,58.37-18.56,75-50C205,40.84,208.35,20.47,209.45,9.08A10,10,0,0,1,219.4,0H250q0,175,0,350c-5.71,0-8.57.84-19.48-6.74-20.25-14.07-76.64-63.92-134.06-99.54C30.09,202.55,7.93,180.78,1.59,172.53a7.71,7.71,0,0,1-1-7.68C10,142.41,60.49,27.31,89.79,20,114.84,13.77,87.14,107.81,119.84,110Z"/><path class="cls-1" d="M380.17,110c-33.74,2.27-58.37-18.56-75-50C295,40.84,291.65,20.47,290.56,9.08a10,10,0,0,0-10-9.07H250q0,175,0,350c5.71,0,8.57.84,19.48-6.74,20.25-14.07,76.64-63.92,134.06-99.54,66.37-41.17,88.53-62.94,94.87-71.19a7.71,7.71,0,0,0,1-7.68C490,142.41,439.52,27.31,410.22,20,385.16,13.77,412.86,107.81,380.17,110Z"/></svg>